<?xml version="1.0" encoding="utf-8"?>
<!-- Generator: Adobe Illustrator 17.0.0, SVG Export Plug-In . SVG Version: 6.00 Build 0)  -->
<!DOCTYPE svg PUBLIC "-//W3C//DTD SVG 1.1//EN" "http://www.w3.org/Graphics/SVG/1.1/DTD/svg11.dtd">
<svg version="1.1" id="Layer_1" xmlns="http://www.w3.org/2000/svg" xmlns:xlink="http://www.w3.org/1999/xlink" x="0px" y="0px"
	 width="32px" height="32px" viewBox="0 0 32 32" enable-background="new 0 0 32 32" xml:space="preserve">
<path fill="#FFFFFF" d="M14.19,20.554c0.045-0.172-0.001-0.349-0.115-0.482c-0.664-0.778-1.372-1.853-1.446-2.316
	c1.52-3.108,4.436-4.844,4.989-4.91c0.311-0.038,1.403,0.674,2.291,1.494c0.112,0.104,0.265,0.156,0.418,0.142
	c2.397-0.208,3.573-2.709,3.621-2.815c0.047-0.099,0.061-0.211,0.043-0.318c-0.479-2.887-2.159-3.321-2.229-3.339
	c-0.098-0.024-0.2-0.02-0.295,0.011C10.785,11.464,8.805,18.62,8.154,20.973c-0.05,0.181-0.091,0.331-0.128,0.444
	C8.008,21.471,8,21.528,8,21.585c0,0.077,0.016,0.155,0.049,0.226c0.033,0.072,0.834,1.772,3.445,2.188
	c0.114,0.019,0.231,0,0.334-0.052C11.9,23.909,13.593,23.019,14.19,20.554z"/>
<path fill="#5FB404" d="M32,16c0-8.837-7.163-16-16-16C7.163,0,0,7.163,0,16s7.163,16,16,16C24.837,32,32,24.837,32,16z
	 M11.495,23.998c-2.612-0.416-3.413-2.115-3.445-2.188C8.016,21.74,8,21.662,8,21.585c0-0.057,0.008-0.113,0.026-0.168
	c0.037-0.113,0.077-0.263,0.128-0.444c0.651-2.352,2.632-9.508,13.315-12.951c0.095-0.031,0.196-0.035,0.295-0.011
	c0.07,0.017,1.75,0.452,2.229,3.339c0.019,0.107,0.004,0.218-0.043,0.318c-0.048,0.106-1.224,2.606-3.621,2.815
	c-0.153,0.014-0.305-0.038-0.418-0.142c-0.888-0.819-1.98-1.532-2.291-1.494c-0.553,0.065-3.469,1.801-4.989,4.91
	c0.073,0.464,0.781,1.538,1.446,2.316c0.113,0.133,0.159,0.31,0.115,0.482c-0.598,2.466-2.29,3.355-2.362,3.392
	C11.726,23.998,11.608,24.017,11.495,23.998z"/>
</svg>
