<?xml version="1.0" encoding="utf-8"?>
<!-- Generator: Adobe Illustrator 17.0.0, SVG Export Plug-In . SVG Version: 6.00 Build 0)  -->
<!DOCTYPE svg PUBLIC "-//W3C//DTD SVG 1.1//EN" "http://www.w3.org/Graphics/SVG/1.1/DTD/svg11.dtd">
<svg version="1.1" id="Layer_1" xmlns="http://www.w3.org/2000/svg" xmlns:xlink="http://www.w3.org/1999/xlink" x="0px" y="0px"
	 width="320px" height="100px" viewBox="0 0 320 100" enable-background="new 0 0 320 100" xml:space="preserve">
<g>
	<path fill="#FFFFFF" d="M140.949,54.18V42.799h-18.751V54.18h-7.369V26.888h7.369v9.932h18.751v-9.932h7.369V54.18H140.949z"/>
	<path fill="#FFFFFF" d="M178.788,49.016h-15.215l-2.562,5.164h-8.223l14.282-27.292h8.223l14.282,27.292h-8.223L178.788,49.016z
		 M166.215,43.692h9.971l-4.966-10.051L166.215,43.692z"/>
	<path fill="#FFFFFF" d="M209.231,54.18h-8.581l-13.805-27.292h8.223L205,47.427l9.912-20.539h8.223L209.231,54.18z"/>
	<path fill="#FFFFFF" d="M227.605,54.18V26.888h7.369V54.18H227.605z"/>
	<path fill="#FFFFFF" d="M270.708,53.386c-0.967,0.318-1.966,0.593-2.999,0.824c-1.033,0.232-2.122,0.407-3.268,0.526
		c-1.145,0.119-2.374,0.179-3.685,0.179c-2.781,0-5.34-0.298-7.677-0.894c-2.337-0.596-4.35-1.493-6.038-2.691
		c-1.688-1.198-3.003-2.695-3.943-4.489c-0.94-1.794-1.41-3.89-1.41-6.287s0.47-4.492,1.41-6.287
		c0.94-1.794,2.254-3.291,3.943-4.489c1.688-1.198,3.701-2.096,6.038-2.691c2.337-0.596,4.896-0.894,7.677-0.894
		c1.311,0,2.539,0.06,3.685,0.179c1.145,0.119,2.235,0.295,3.268,0.526c1.033,0.232,2.033,0.507,2.999,0.824s1.927,0.675,2.88,1.073
		v6.634c-0.755-0.411-1.549-0.818-2.384-1.222c-0.834-0.404-1.755-0.768-2.761-1.092s-2.112-0.589-3.317-0.795
		c-1.205-0.205-2.562-0.308-4.072-0.308c-2.317,0-4.241,0.238-5.77,0.715c-1.529,0.477-2.751,1.112-3.665,1.907
		c-0.914,0.795-1.556,1.705-1.927,2.731c-0.371,1.026-0.556,2.089-0.556,3.188c0,0.728,0.079,1.447,0.238,2.155
		c0.159,0.708,0.424,1.377,0.795,2.006c0.371,0.629,0.854,1.208,1.45,1.738c0.596,0.53,1.337,0.987,2.225,1.371
		c0.887,0.384,1.923,0.685,3.109,0.904s2.552,0.328,4.102,0.328c1.51,0,2.867-0.096,4.072-0.288
		c1.205-0.192,2.311-0.447,3.317-0.765c1.006-0.318,1.927-0.679,2.761-1.083s1.629-0.818,2.384-1.241v6.634
		C272.634,52.71,271.674,53.068,270.708,53.386z"/>
	<path fill="#FFFFFF" d="M315.777,40.554c0,2.344-0.43,4.413-1.291,6.207c-0.861,1.794-2.092,3.294-3.695,4.499
		s-3.546,2.115-5.83,2.731s-4.85,0.924-7.697,0.924c-2.847,0-5.419-0.308-7.717-0.924s-4.254-1.526-5.87-2.731
		s-2.86-2.705-3.734-4.499c-0.874-1.794-1.311-3.863-1.311-6.207c0-2.344,0.437-4.413,1.311-6.207
		c0.874-1.794,2.119-3.294,3.734-4.499s3.572-2.115,5.87-2.731c2.298-0.616,4.87-0.924,7.717-0.924c2.847,0,5.413,0.308,7.697,0.924
		c2.284,0.616,4.228,1.526,5.83,2.731s2.834,2.705,3.695,4.499C315.347,36.141,315.777,38.21,315.777,40.554z M308.329,40.554
		c0-1.02-0.162-2.036-0.487-3.049c-0.324-1.013-0.9-1.923-1.728-2.731s-1.957-1.463-3.387-1.966s-3.251-0.755-5.462-0.755
		c-1.483,0-2.787,0.116-3.913,0.348s-2.099,0.553-2.92,0.963s-1.51,0.891-2.066,1.44c-0.556,0.55-1,1.139-1.331,1.768
		c-0.331,0.629-0.566,1.284-0.705,1.966c-0.139,0.682-0.209,1.354-0.209,2.016c0,0.675,0.07,1.357,0.209,2.046
		c0.139,0.689,0.374,1.347,0.705,1.976c0.331,0.629,0.775,1.215,1.331,1.758c0.556,0.543,1.245,1.016,2.066,1.42
		c0.821,0.404,1.794,0.722,2.92,0.953s2.43,0.348,3.913,0.348c2.211,0,4.032-0.252,5.462-0.755c1.43-0.503,2.559-1.159,3.387-1.966
		c0.828-0.808,1.404-1.718,1.728-2.731S308.329,41.574,308.329,40.554z"/>
</g>
<g>
	<path fill="#FFFFFF" d="M141.108,78.461c-0.334,3.343-3.093,6.062-7.378,6.062c-4.85,0-7.943-3.052-7.943-7.839
		c0-3.406,2.11-7.838,7.943-7.838c3.261,0,6.793,1.484,7.253,5.414h-1.546c-0.46-2.844-3.011-3.993-5.706-3.993
		c-3.7,0-6.271,2.07-6.271,6.417c0,3.324,1.735,6.417,6.271,6.417c3.553,0,5.309-1.797,5.832-4.639H141.108z"/>
	<path fill="#FFFFFF" d="M152.542,68.845c4.243,0,8.11,2.571,8.11,7.838c0,5.268-3.867,7.839-8.11,7.839s-8.11-2.572-8.11-7.839
		C144.432,71.415,148.298,68.845,152.542,68.845z M152.542,83.1c3.282,0,6.438-1.922,6.438-6.417c0-4.494-3.156-6.417-6.438-6.417
		c-3.281,0-6.437,1.923-6.437,6.417C146.104,81.178,149.261,83.1,152.542,83.1z"/>
	<path fill="#FFFFFF" d="M164.749,69.221h8.132c2.529,0,4.849,0.899,4.849,4.034c0,1.589-0.982,3.177-2.926,3.616v0.042
		c2.112,0.335,2.55,1.693,2.654,4.139c0.043,0.941,0.168,2.76,0.523,3.094h-1.673c-0.272-0.314-0.376-1.421-0.397-3.052
		c-0.042-2.633-1.045-3.511-3.616-3.511h-5.999v6.564h-1.548V69.221z M166.296,76.161h6.542c1.693,0,3.219-0.627,3.219-2.906
		c0-2.195-1.651-2.612-3.073-2.612h-6.689V76.161z"/>
	<path fill="#FFFFFF" d="M181.911,69.221h8.048c2.299,0,4.494,1.149,4.494,4.305c0,2.822-1.86,4.348-5.184,4.348h-5.81v6.27h-1.548
		V69.221z M183.458,76.453h5.978c2.592,0,3.344-1.191,3.344-2.926c0-2.237-1.254-2.884-3.031-2.884h-6.292V76.453z"/>
	<path fill="#FFFFFF" d="M205.572,68.845c4.243,0,8.11,2.571,8.11,7.838c0,5.268-3.867,7.839-8.11,7.839s-8.11-2.572-8.11-7.839
		C197.462,71.415,201.329,68.845,205.572,68.845z M205.572,83.1c3.282,0,6.438-1.922,6.438-6.417c0-4.494-3.156-6.417-6.438-6.417
		c-3.281,0-6.437,1.923-6.437,6.417C199.135,81.178,202.291,83.1,205.572,83.1z"/>
	<path fill="#FFFFFF" d="M217.78,69.221h8.132c2.529,0,4.849,0.899,4.849,4.034c0,1.589-0.982,3.177-2.926,3.616v0.042
		c2.112,0.335,2.55,1.693,2.654,4.139c0.042,0.941,0.168,2.76,0.523,3.094h-1.673c-0.272-0.314-0.376-1.421-0.397-3.052
		c-0.042-2.633-1.044-3.511-3.616-3.511h-5.999v6.564h-1.548V69.221z M219.328,76.161h6.542c1.693,0,3.219-0.627,3.219-2.906
		c0-2.195-1.651-2.612-3.073-2.612h-6.689V76.161z"/>
	<path fill="#FFFFFF" d="M244.745,79.61h-7.86l-2.028,4.536h-1.672l6.772-14.924h1.798l6.772,14.924h-1.798L244.745,79.61z
		 M240.836,70.768l-3.323,7.421h6.605L240.836,70.768z"/>
	<path fill="#FFFFFF" d="M254.737,70.643h-5.853v-1.421h13.252v1.421h-5.853v13.503h-1.546V70.643z"/>
	<path fill="#FFFFFF" d="M265.314,69.221h1.548v14.924h-1.548V69.221z"/>
	<path fill="#FFFFFF" d="M278.983,68.845c4.243,0,8.11,2.571,8.11,7.838c0,5.268-3.867,7.839-8.11,7.839s-8.11-2.572-8.11-7.839
		C270.873,71.415,274.74,68.845,278.983,68.845z M278.983,83.1c3.282,0,6.438-1.922,6.438-6.417c0-4.494-3.156-6.417-6.438-6.417
		c-3.281,0-6.437,1.923-6.437,6.417C272.546,81.178,275.702,83.1,278.983,83.1z"/>
	<path fill="#FFFFFF" d="M290.94,69.221h1.86l10.43,12.751h0.043V69.221h1.546v14.924h-1.798l-10.493-12.751h-0.042v12.751h-1.546
		V69.221z"/>
</g>
<g>
	<circle fill="none" stroke="#FFCA05" stroke-width="3" stroke-miterlimit="10" cx="53.25" cy="50.25" r="47.206"/>
	<circle fill="none" stroke="#FFCA05" stroke-width="3" stroke-miterlimit="10" cx="53.25" cy="50.25" r="39.23"/>
	<path fill="none" stroke="#FFCA05" stroke-width="3" stroke-miterlimit="10" d="M73.023,16.372
		c-3.987-2.332-8.42-3.979-13.144-4.783l3.497,10.84L73.023,16.372z"/>
	<path fill="none" stroke="#FFCA05" stroke-width="3" stroke-miterlimit="10" d="M46.62,11.589
		c-4.723,0.804-9.157,2.451-13.144,4.783l9.647,6.057L46.62,11.589z"/>
	<path fill="none" stroke="#FFCA05" stroke-width="3" stroke-miterlimit="10" d="M90.184,37.009
		c-1.602-4.469-3.995-8.559-7.006-12.11L78.89,35.446L90.184,37.009z"/>
	<path fill="none" stroke="#FFCA05" stroke-width="3" stroke-miterlimit="10" d="M90.056,63.85c1.566-4.237,2.424-8.818,2.424-13.6
		c0-0.062-0.004-0.123-0.005-0.185l-10.069,5.326L90.056,63.85z"/>
	<path fill="none" stroke="#FFCA05" stroke-width="3" stroke-miterlimit="10" d="M23.322,24.899
		c-3.011,3.551-5.403,7.641-7.006,12.11l11.293-1.563L23.322,24.899z"/>
	<path fill="none" stroke="#FFCA05" stroke-width="3" stroke-miterlimit="10" d="M72.703,84.312
		c4.089-2.341,7.721-5.389,10.716-8.989L72.281,72.93L72.703,84.312z"/>
	<path fill="none" stroke="#FFCA05" stroke-width="3" stroke-miterlimit="10" d="M46.257,88.846c2.27,0.409,4.605,0.634,6.993,0.634
		s4.722-0.225,6.993-0.634l-6.993-8.989L46.257,88.846z"/>
	<path fill="none" stroke="#FFCA05" stroke-width="3" stroke-miterlimit="10" d="M23.081,75.323c2.995,3.6,6.627,6.649,10.716,8.989
		l0.422-11.382L23.081,75.323z"/>
	<path fill="none" stroke="#FFCA05" stroke-width="3" stroke-miterlimit="10" d="M14.025,50.065c0,0.062-0.005,0.123-0.005,0.185
		c0,4.782,0.858,9.362,2.424,13.6l7.649-8.459L14.025,50.065z"/>
	<polygon fill="none" stroke="#FFCA05" stroke-width="3" stroke-miterlimit="10" points="53.25,17.182 58.905,34.713 74.505,24.919 
		67.569,41.983 85.815,44.508 69.533,53.121 81.887,66.784 63.878,62.916 64.56,81.323 53.25,66.784 41.94,81.323 42.622,62.916 
		24.613,66.784 36.967,53.121 20.685,44.508 38.931,41.983 31.995,24.919 47.595,34.713 	"/>
</g>
</svg>
