<?xml version="1.0" encoding="utf-8"?>
<!-- Generator: Adobe Illustrator 17.0.0, SVG Export Plug-In . SVG Version: 6.00 Build 0)  -->
<!DOCTYPE svg PUBLIC "-//W3C//DTD SVG 1.1//EN" "http://www.w3.org/Graphics/SVG/1.1/DTD/svg11.dtd">
<svg version="1.1" id="Layer_1" xmlns="http://www.w3.org/2000/svg" xmlns:xlink="http://www.w3.org/1999/xlink" x="0px" y="0px"
	 width="400px" height="100px" viewBox="0 0 400 100" enable-background="new 0 0 400 100" xml:space="preserve">
<g>
	<circle fill="none" stroke="#FFCA05" stroke-width="3" stroke-miterlimit="10" cx="99.087" cy="50.25" r="47.206"/>
	<circle fill="none" stroke="#FFCA05" stroke-width="3" stroke-miterlimit="10" cx="99.087" cy="50.25" r="39.23"/>
	<path fill="none" stroke="#FFCA05" stroke-width="3" stroke-miterlimit="10" d="M118.86,16.372
		c-3.987-2.332-8.42-3.979-13.144-4.783l3.497,10.84L118.86,16.372z"/>
	<path fill="none" stroke="#FFCA05" stroke-width="3" stroke-miterlimit="10" d="M92.457,11.589
		c-4.723,0.804-9.157,2.451-13.144,4.783l9.647,6.057L92.457,11.589z"/>
	<path fill="none" stroke="#FFCA05" stroke-width="3" stroke-miterlimit="10" d="M136.021,37.009
		c-1.602-4.469-3.995-8.559-7.006-12.11l-4.288,10.547L136.021,37.009z"/>
	<path fill="none" stroke="#FFCA05" stroke-width="3" stroke-miterlimit="10" d="M135.893,63.85c1.566-4.237,2.424-8.818,2.424-13.6
		c0-0.062-0.004-0.123-0.005-0.185l-10.069,5.326L135.893,63.85z"/>
	<path fill="none" stroke="#FFCA05" stroke-width="3" stroke-miterlimit="10" d="M69.159,24.899
		c-3.011,3.551-5.403,7.641-7.006,12.11l11.293-1.563L69.159,24.899z"/>
	<path fill="none" stroke="#FFCA05" stroke-width="3" stroke-miterlimit="10" d="M118.54,84.312
		c4.089-2.341,7.721-5.389,10.716-8.989l-11.138-2.393L118.54,84.312z"/>
	<path fill="none" stroke="#FFCA05" stroke-width="3" stroke-miterlimit="10" d="M92.094,88.846c2.27,0.409,4.605,0.634,6.993,0.634
		s4.722-0.225,6.993-0.634l-6.993-8.989L92.094,88.846z"/>
	<path fill="none" stroke="#FFCA05" stroke-width="3" stroke-miterlimit="10" d="M68.918,75.323c2.995,3.6,6.627,6.649,10.716,8.989
		l0.422-11.382L68.918,75.323z"/>
	<path fill="none" stroke="#FFCA05" stroke-width="3" stroke-miterlimit="10" d="M59.862,50.065c0,0.062-0.005,0.123-0.005,0.185
		c0,4.782,0.858,9.362,2.424,13.6l7.649-8.459L59.862,50.065z"/>
	<polygon fill="none" stroke="#FFCA05" stroke-width="3" stroke-miterlimit="10" points="99.087,17.182 104.742,34.713 
		120.342,24.919 113.406,41.983 131.652,44.508 115.37,53.121 127.724,66.784 109.715,62.916 110.397,81.323 99.087,66.784 
		87.777,81.323 88.459,62.916 70.45,66.784 82.804,53.121 66.522,44.508 84.768,41.983 77.832,24.919 93.432,34.713 	"/>
</g>
<g>
	<path fill="#FFFFFF" d="M191.567,52.763V40.428h-20.322v12.336h-7.987v-29.58h7.987v10.764h20.322V23.184h7.987v29.579H191.567z"/>
	<path fill="#FFFFFF" d="M232.577,47.166h-16.491l-2.777,5.597h-8.913l15.479-29.579h8.913l15.479,29.579h-8.913L232.577,47.166z
		 M218.95,41.396h10.807l-5.382-10.894L218.95,41.396z"/>
	<path fill="#FFFFFF" d="M265.572,52.763h-9.3L241.31,23.184h8.913l10.764,22.26l10.742-22.26h8.913L265.572,52.763z"/>
	<path fill="#FFFFFF" d="M285.486,52.763V23.184h7.987v29.579H285.486z"/>
	<path fill="#FFFFFF" d="M332.201,51.902c-1.048,0.344-2.131,0.643-3.251,0.893c-1.119,0.251-2.3,0.441-3.541,0.571
		c-1.242,0.129-2.573,0.194-3.993,0.194c-3.014,0-5.788-0.323-8.321-0.969c-2.533-0.646-4.714-1.619-6.545-2.917
		c-1.829-1.299-3.254-2.921-4.274-4.866c-1.019-1.945-1.529-4.216-1.529-6.814s0.509-4.869,1.529-6.814
		c1.02-1.945,2.443-3.567,4.274-4.866c1.829-1.299,4.011-2.271,6.545-2.917c2.533-0.646,5.307-0.969,8.321-0.969
		c1.421,0,2.752,0.065,3.993,0.194s2.422,0.32,3.541,0.571s2.203,0.549,3.251,0.893s2.088,0.732,3.122,1.162v7.19
		c-0.818-0.445-1.679-0.886-2.583-1.324c-0.904-0.437-1.901-0.832-2.993-1.184c-1.091-0.352-2.289-0.638-3.595-0.861
		c-1.306-0.222-2.777-0.334-4.414-0.334c-2.511,0-4.597,0.258-6.254,0.775c-1.658,0.517-2.981,1.206-3.972,2.067
		c-0.99,0.861-1.686,1.847-2.089,2.96s-0.602,2.264-0.602,3.455c0,0.79,0.086,1.568,0.258,2.336
		c0.172,0.768,0.459,1.493,0.861,2.174c0.401,0.682,0.925,1.31,1.571,1.883c0.646,0.574,1.449,1.069,2.412,1.485
		c0.962,0.416,2.085,0.743,3.369,0.979c1.284,0.237,2.766,0.356,4.445,0.356c1.636,0,3.107-0.104,4.414-0.312
		c1.306-0.208,2.505-0.485,3.595-0.829c1.091-0.344,2.088-0.736,2.993-1.173s1.765-0.886,2.583-1.346v7.19
		C334.289,51.17,333.249,51.557,332.201,51.902z"/>
	<path fill="#FFFFFF" d="M381.049,37.995c0,2.541-0.467,4.783-1.4,6.728c-0.933,1.945-2.268,3.57-4.004,4.876
		s-3.843,2.293-6.318,2.96c-2.476,0.667-5.256,1.001-8.342,1.001s-5.874-0.334-8.364-1.001c-2.49-0.667-4.611-1.654-6.362-2.96
		s-3.1-2.931-4.047-4.876s-1.421-4.187-1.421-6.728s0.473-4.783,1.421-6.728s2.296-3.57,4.047-4.876s3.872-2.293,6.362-2.96
		s5.278-1.001,8.364-1.001s5.866,0.334,8.342,1.001s4.582,1.654,6.318,2.96s3.071,2.931,4.004,4.876
		C380.582,33.212,381.049,35.454,381.049,37.995z M372.975,37.995c0-1.105-0.176-2.206-0.527-3.304
		c-0.352-1.098-0.976-2.085-1.873-2.96s-2.121-1.586-3.67-2.131c-1.55-0.545-3.523-0.818-5.92-0.818
		c-1.607,0-3.021,0.126-4.241,0.377s-2.275,0.599-3.164,1.044c-0.89,0.445-1.636,0.965-2.239,1.561
		c-0.603,0.595-1.084,1.234-1.442,1.916c-0.358,0.682-0.614,1.392-0.764,2.131s-0.226,1.467-0.226,2.185
		c0,0.732,0.075,1.471,0.226,2.218c0.15,0.746,0.405,1.46,0.764,2.142s0.84,1.317,1.442,1.906c0.602,0.589,1.349,1.101,2.239,1.539
		s1.945,0.782,3.164,1.033s2.634,0.377,4.241,0.377c2.397,0,4.37-0.273,5.92-0.818c1.55-0.545,2.774-1.256,3.67-2.131
		c0.897-0.876,1.521-1.862,1.873-2.96C372.799,40.201,372.975,39.1,372.975,37.995z"/>
</g>
<g>
	<path fill="#FFFFFF" d="M191.739,79.078c-0.362,3.624-3.352,6.57-7.996,6.57c-5.257,0-8.609-3.308-8.609-8.497
		c0-3.692,2.287-8.495,8.609-8.495c3.534,0,7.362,1.609,7.861,5.868h-1.676c-0.499-3.082-3.263-4.328-6.185-4.328
		c-4.01,0-6.797,2.243-6.797,6.955c0,3.603,1.88,6.955,6.797,6.955c3.851,0,5.754-1.947,6.321-5.028H191.739L191.739,79.078z"/>
	<path fill="#FFFFFF" d="M204.131,68.656c4.599,0,8.789,2.786,8.789,8.495s-4.19,8.497-8.789,8.497s-8.789-2.788-8.789-8.497
		C195.342,71.443,199.532,68.656,204.131,68.656z M204.131,84.107c3.558,0,6.978-2.083,6.978-6.955c0-4.87-3.42-6.955-6.978-6.955
		c-3.556,0-6.977,2.085-6.977,6.955C197.155,82.024,200.575,84.107,204.131,84.107z"/>
	<path fill="#FFFFFF" d="M217.361,69.065h8.813c2.741,0,5.256,0.974,5.256,4.372c0,1.722-1.065,3.444-3.171,3.92v0.045
		c2.289,0.363,2.764,1.835,2.877,4.485c0.047,1.019,0.182,2.991,0.567,3.353h-1.813c-0.294-0.34-0.407-1.54-0.43-3.308
		c-0.045-2.853-1.132-3.805-3.92-3.805h-6.501v7.114h-1.677C217.361,85.24,217.361,69.065,217.361,69.065z M219.038,76.586h7.091
		c1.835,0,3.489-0.679,3.489-3.149c0-2.379-1.789-2.832-3.33-2.832h-7.249v5.981H219.038z"/>
	<path fill="#FFFFFF" d="M235.962,69.065h8.722c2.492,0,4.87,1.246,4.87,4.666c0,3.059-2.016,4.713-5.618,4.713h-6.297v6.796h-1.677
		V69.065z M237.639,76.902h6.479c2.81,0,3.625-1.291,3.625-3.171c0-2.425-1.359-3.126-3.285-3.126h-6.819V76.902z"/>
	<path fill="#FFFFFF" d="M261.606,68.656c4.599,0,8.789,2.786,8.789,8.495s-4.19,8.497-8.789,8.497s-8.789-2.788-8.789-8.497
		C252.816,71.443,257.007,68.656,261.606,68.656z M261.606,84.107c3.558,0,6.978-2.083,6.978-6.955c0-4.87-3.42-6.955-6.978-6.955
		c-3.556,0-6.977,2.085-6.977,6.955C254.629,82.024,258.05,84.107,261.606,84.107z"/>
	<path fill="#FFFFFF" d="M274.837,69.065h8.813c2.741,0,5.256,0.974,5.256,4.372c0,1.722-1.065,3.444-3.171,3.92v0.045
		c2.289,0.363,2.764,1.835,2.877,4.485c0.045,1.019,0.182,2.991,0.567,3.353h-1.813c-0.294-0.34-0.407-1.54-0.43-3.308
		c-0.045-2.853-1.132-3.805-3.919-3.805h-6.501v7.114h-1.677L274.837,69.065L274.837,69.065z M276.515,76.586h7.091
		c1.835,0,3.489-0.679,3.489-3.149c0-2.379-1.789-2.832-3.33-2.832h-7.249v5.981H276.515z"/>
	<path fill="#FFFFFF" d="M304.063,80.324h-8.519l-2.198,4.915h-1.812l7.34-16.175h1.949l7.34,16.175h-1.949L304.063,80.324z
		 M299.826,70.741l-3.602,8.043h7.159L299.826,70.741z"/>
	<path fill="#FFFFFF" d="M314.892,70.605h-6.344v-1.54h14.363v1.54h-6.344V85.24h-1.676L314.892,70.605L314.892,70.605z"/>
	<path fill="#FFFFFF" d="M326.355,69.065h1.677V85.24h-1.677V69.065z"/>
	<path fill="#FFFFFF" d="M341.171,68.656c4.599,0,8.789,2.786,8.789,8.495s-4.19,8.497-8.789,8.497s-8.789-2.788-8.789-8.497
		C332.38,71.443,336.572,68.656,341.171,68.656z M341.171,84.107c3.558,0,6.978-2.083,6.978-6.955c0-4.87-3.42-6.955-6.978-6.955
		c-3.556,0-6.977,2.085-6.977,6.955C334.194,82.024,337.615,84.107,341.171,84.107z"/>
	<path fill="#FFFFFF" d="M354.129,69.065h2.016l11.305,13.819h0.047V69.065h1.676V85.24h-1.949l-11.373-13.819h-0.045V85.24h-1.676
		L354.129,69.065L354.129,69.065z"/>
</g>
</svg>
