<?xml version="1.0" encoding="utf-8"?>
<!-- Generator: Adobe Illustrator 17.0.0, SVG Export Plug-In . SVG Version: 6.00 Build 0)  -->
<!DOCTYPE svg PUBLIC "-//W3C//DTD SVG 1.1//EN" "http://www.w3.org/Graphics/SVG/1.1/DTD/svg11.dtd">
<svg version="1.1" id="Layer_1" xmlns="http://www.w3.org/2000/svg" xmlns:xlink="http://www.w3.org/1999/xlink" x="0px" y="0px"
	 width="32px" height="32px" viewBox="0 0 32 32" enable-background="new 0 0 32 32" xml:space="preserve">
<path fill="#FFFFFF" d="M16,5C9.935,5,5,9.935,5,16s4.935,11,11,11c1.75,0,3.491-0.421,5.036-1.218
	c0.491-0.253,0.684-0.856,0.43-1.347c-0.253-0.491-0.857-0.684-1.347-0.43C18.838,24.665,17.453,25,16,25c-4.962,0-9-4.038-9-9
	s4.038-9,9-9s9,4.038,9,9c0,1.521-0.376,2.991-1.094,4.306c-0.877-0.693-2.197-2.098-2.197-4.265v-4.395c0-0.552-0.448-1-1-1
	c-0.552,0-1,0.448-1,1v0.041c-0.996-0.858-2.29-1.38-3.708-1.38c-3.143,0-5.691,2.548-5.691,5.691s2.548,5.691,5.691,5.691
	c1.867,0,3.519-0.903,4.557-2.292c1.152,2.123,3.082,3.142,3.198,3.201c0.444,0.228,0.99,0.092,1.276-0.318
	C26.319,20.433,27,18.261,27,16C27,9.935,22.065,5,16,5z M16,19.691c-2.035,0-3.691-1.656-3.691-3.691s1.656-3.691,3.691-3.691
	c2.035,0,3.691,1.656,3.691,3.691S18.035,19.691,16,19.691z"/>
<path fill="#2BABE2" d="M16,0C7.163,0,0,7.163,0,16s7.163,16,16,16s16-7.163,16-16S24.837,0,16,0z M25.031,22.282
	c-0.286,0.411-0.832,0.546-1.276,0.318c-0.116-0.059-2.046-1.078-3.198-3.201c-1.038,1.389-2.69,2.292-4.557,2.292
	c-3.143,0-5.691-2.548-5.691-5.691s2.548-5.691,5.691-5.691c1.418,0,2.712,0.522,3.708,1.38v-0.041c0-0.552,0.448-1,1-1
	c0.552,0,1,0.448,1,1v4.395c0,2.167,1.32,3.571,2.197,4.265C24.624,18.991,25,17.521,25,16c0-4.962-4.038-9-9-9s-9,4.038-9,9
	s4.038,9,9,9c1.453,0,2.838-0.335,4.119-0.996c0.49-0.254,1.094-0.061,1.347,0.43c0.253,0.491,0.061,1.094-0.43,1.347
	C19.491,26.579,17.75,27,16,27C9.935,27,5,22.065,5,16S9.935,5,16,5s11,4.935,11,11C27,18.261,26.319,20.433,25.031,22.282z"/>
<path fill="#2BABE2" d="M16,12.309c-2.035,0-3.691,1.656-3.691,3.691s1.656,3.691,3.691,3.691c2.035,0,3.691-1.656,3.691-3.691
	S18.035,12.309,16,12.309z"/>
</svg>
