<?xml version="1.0" encoding="utf-8"?>
<!-- Generator: Adobe Illustrator 17.0.0, SVG Export Plug-In . SVG Version: 6.00 Build 0)  -->
<!DOCTYPE svg PUBLIC "-//W3C//DTD SVG 1.1//EN" "http://www.w3.org/Graphics/SVG/1.1/DTD/svg11.dtd">
<svg version="1.1" id="Layer_1" xmlns="http://www.w3.org/2000/svg" xmlns:xlink="http://www.w3.org/1999/xlink" x="0px" y="0px"
	 width="32px" height="32px" viewBox="0 0 32 32" enable-background="new 0 0 32 32" xml:space="preserve">
<path fill="#FFFFFF" d="M16,6c-4.694,0-8.5,3.761-8.5,8.4C7.5,21.75,16,27,16,27s8.5-5.119,8.5-12.6C24.5,9.761,20.694,6,16,6z
	 M16,18c-2.209,0-4-1.791-4-4s1.791-4,4-4s4,1.791,4,4S18.209,18,16,18z"/>
<path fill="#2BABE2" d="M16,0C7.163,0,0,7.163,0,16c0,8.837,7.163,16,16,16s16-7.163,16-16C32,7.163,24.837,0,16,0z M16,27
	c0,0-8.5-5.25-8.5-12.6C7.5,9.761,11.306,6,16,6s8.5,3.761,8.5,8.4C24.5,21.881,16,27,16,27z"/>
<circle fill="#2BABE2" cx="16" cy="14" r="4"/>
</svg>
