<?xml version="1.0" encoding="utf-8"?>
<!-- Generator: Adobe Illustrator 17.0.0, SVG Export Plug-In . SVG Version: 6.00 Build 0)  -->
<!DOCTYPE svg PUBLIC "-//W3C//DTD SVG 1.1//EN" "http://www.w3.org/Graphics/SVG/1.1/DTD/svg11.dtd">
<svg version="1.1" id="Layer_1" xmlns="http://www.w3.org/2000/svg" xmlns:xlink="http://www.w3.org/1999/xlink" x="0px" y="0px"
	 width="100px" height="100px" viewBox="0 0 100 100" enable-background="new 0 0 100 100" xml:space="preserve">
<g>
	<circle fill="none" stroke="#FFCA05" stroke-width="3" stroke-miterlimit="10" cx="50.25" cy="50.25" r="47.206"/>
	<circle fill="none" stroke="#FFCA05" stroke-width="3" stroke-miterlimit="10" cx="50.25" cy="50.25" r="39.23"/>
	<path fill="none" stroke="#FFCA05" stroke-width="3" stroke-miterlimit="10" d="M70.023,16.372
		c-3.987-2.332-8.42-3.979-13.144-4.783l3.497,10.84L70.023,16.372z"/>
	<path fill="none" stroke="#FFCA05" stroke-width="3" stroke-miterlimit="10" d="M43.62,11.589
		c-4.723,0.804-9.157,2.451-13.144,4.783l9.647,6.057L43.62,11.589z"/>
	<path fill="none" stroke="#FFCA05" stroke-width="3" stroke-miterlimit="10" d="M87.184,37.009
		c-1.602-4.469-3.995-8.559-7.006-12.11L75.89,35.446L87.184,37.009z"/>
	<path fill="none" stroke="#FFCA05" stroke-width="3" stroke-miterlimit="10" d="M87.056,63.85c1.566-4.237,2.424-8.818,2.424-13.6
		c0-0.062-0.004-0.123-0.005-0.185l-10.069,5.326L87.056,63.85z"/>
	<path fill="none" stroke="#FFCA05" stroke-width="3" stroke-miterlimit="10" d="M20.322,24.899
		c-3.011,3.551-5.403,7.641-7.006,12.11l11.293-1.563L20.322,24.899z"/>
	<path fill="none" stroke="#FFCA05" stroke-width="3" stroke-miterlimit="10" d="M69.703,84.312
		c4.089-2.341,7.721-5.389,10.716-8.989L69.281,72.93L69.703,84.312z"/>
	<path fill="none" stroke="#FFCA05" stroke-width="3" stroke-miterlimit="10" d="M43.257,88.846c2.27,0.409,4.605,0.634,6.993,0.634
		s4.722-0.225,6.993-0.634l-6.993-8.989L43.257,88.846z"/>
	<path fill="none" stroke="#FFCA05" stroke-width="3" stroke-miterlimit="10" d="M20.081,75.323c2.995,3.6,6.627,6.649,10.716,8.989
		l0.422-11.382L20.081,75.323z"/>
	<path fill="none" stroke="#FFCA05" stroke-width="3" stroke-miterlimit="10" d="M11.025,50.065c0,0.062-0.005,0.123-0.005,0.185
		c0,4.782,0.858,9.362,2.424,13.6l7.649-8.459L11.025,50.065z"/>
	<polygon fill="none" stroke="#FFCA05" stroke-width="3" stroke-miterlimit="10" points="50.25,17.182 55.905,34.713 71.505,24.919 
		64.569,41.983 82.815,44.508 66.533,53.121 78.887,66.784 60.878,62.916 61.56,81.323 50.25,66.784 38.94,81.323 39.622,62.916 
		21.613,66.784 33.967,53.121 17.685,44.508 35.931,41.983 28.995,24.919 44.595,34.713 	"/>
</g>
</svg>
